<?xml version="1.0" encoding="UTF-8" standalone="no"?>
<svg width="112px" height="112px" viewBox="0 0 112 112" version="1.1" xmlns="http://www.w3.org/2000/svg" xmlns:xlink="http://www.w3.org/1999/xlink">
    <!-- Generator: Sketch 43.2 (39069) - http://www.bohemiancoding.com/sketch -->
    <title>1</title>
    <desc>Created with Sketch.</desc>
    <defs></defs>
    <g id="Color" stroke="none" stroke-width="1" fill="none" fill-rule="evenodd">
        <g id="Artboard" transform="translate(-230.000000, -175.000000)">
            <g id="1" transform="translate(230.000000, 175.000000)">
                <path d="M106.378379,59.8192 C99.944554,59.8192 94.7286175,54.5660387 94.7286175,48.0862968 C94.7286175,46.0450065 95.2469825,44.1247484 96.1581571,42.4537806 C94.7860143,42.8837161 93.3277762,43.1167484 91.8157286,43.1167484 C83.7747921,43.1167484 77.2548714,36.5502968 77.2548714,28.4519742 C77.2548714,28.1521032 77.2817762,27.8594581 77.2997127,27.5650065 C75.7517921,28.1286194 74.0908714,28.4519742 72.3510302,28.4519742 C64.3100937,28.4519742 57.790173,21.8855226 57.790173,13.7853935 C57.790173,12.1180387 58.0825381,10.5247484 58.5937286,9.03442581 C57.7291889,9.22229677 56.8341571,9.32887742 55.9122206,9.32887742 C51.1446968,9.32887742 46.9959825,6.65171613 44.8705063,2.71003871 C20.7728079,7.86565161 2.68922063,29.4148129 2.68922063,55.2217806 C2.68922063,84.8764903 26.5591254,108.916748 56.0036968,108.916748 C84.0241095,108.916748 106.979252,87.1381677 109.135221,59.4759742 C108.249157,59.6909419 107.329014,59.8192 106.378379,59.8192" id="Fill-1" fill="#B4814A"></path>
                <path d="M46.1228333,78.5416258 C39.2334206,78.5416258 33.6497857,72.9181419 33.6497857,65.9795613 C33.6497857,59.0409806 39.2334206,53.4174968 46.1228333,53.4174968 C53.012246,53.4174968 58.595881,59.0409806 58.595881,65.9795613 C58.595881,72.9181419 53.012246,78.5416258 46.1228333,78.5416258 Z" id="Fill-5" fill="#2E2E31"></path>
                <path d="M46.1233714,56.1268129 C40.7280698,56.1268129 36.3408,60.5472 36.3408,65.9792 C36.3408,71.4112 40.7280698,75.8315871 46.1233714,75.8315871 C51.518673,75.8315871 55.9059429,71.4112 55.9059429,65.9792 C55.9059429,60.5472 51.518673,56.1268129 46.1233714,56.1268129 M46.1233714,81.2509419 C37.7631651,81.2509419 30.9598476,74.4008774 30.9598476,65.9792 C30.9598476,57.5575226 37.7631651,50.7074581 46.1233714,50.7074581 C54.4835778,50.7074581 61.2868952,57.5575226 61.2868952,65.9792 C61.2868952,74.4008774 54.4835778,81.2509419 46.1233714,81.2509419" id="Fill-7" fill="#2E2E30"></path>
                <path d="M2.69549841,55.4428903 C4.19857778,56.6532129 6.07832381,57.4065032 8.15178413,57.4065032 C13.0054032,57.4065032 16.9388794,53.4431484 16.9388794,48.5548903 C16.9388794,43.6666323 13.0054032,39.7050839 8.15178413,39.7050839 C6.95183175,39.7050839 5.80927619,39.9507613 4.76716508,40.389729 C3.42372063,45.1027613 2.69011746,50.0741161 2.69011746,55.2225032 C2.69011746,55.2965677 2.69549841,55.3688258 2.69549841,55.4428903" id="Fill-9" fill="#513A2B"></path>
                <path d="M46.9680016,26.6045161 C46.9680016,30.4089032 43.9062397,33.4925161 40.1288111,33.4925161 C36.3513825,33.4925161 33.2896206,30.4089032 33.2896206,26.6045161 C33.2896206,22.800129 36.3513825,19.7165161 40.1288111,19.7165161 C43.9062397,19.7165161 46.9680016,22.800129 46.9680016,26.6045161" id="Fill-11" fill="#513A2B"></path>
                <path d="M40.1293492,22.4261935 C37.8424444,22.4261935 35.9806349,24.3012903 35.9806349,26.6045161 C35.9806349,28.9077419 37.8424444,30.7828387 40.1293492,30.7828387 C42.416254,30.7828387 44.2780635,28.9077419 44.2780635,26.6045161 C44.2780635,24.3012903 42.416254,22.4261935 40.1293492,22.4261935 M40.1293492,36.2021935 C34.8739524,36.2021935 30.5996825,31.8974194 30.5996825,26.6045161 C30.5996825,21.3116129 34.8739524,17.0068387 40.1293492,17.0068387 C45.384746,17.0068387 49.6572222,21.3116129 49.6572222,26.6045161 C49.6572222,31.8974194 45.384746,36.2021935 40.1293492,36.2021935" id="Fill-13" fill="#2E2E30"></path>
                <path d="M90.1438667,73.4028129 C90.1438667,77.2072 87.0821048,80.2908129 83.3046762,80.2908129 C79.5272476,80.2908129 76.4654857,77.2072 76.4654857,73.4028129 C76.4654857,69.5984258 79.5272476,66.5148129 83.3046762,66.5148129 C87.0821048,66.5148129 90.1438667,69.5984258 90.1438667,73.4028129" id="Fill-15" fill="#513A2B"></path>
                <path d="M83.3048556,69.2244903 C81.0179508,69.2244903 79.1561413,71.0995871 79.1561413,73.4028129 C79.1561413,75.7060387 81.0179508,77.5811355 83.3048556,77.5811355 C85.5917603,77.5811355 87.4535698,75.7060387 87.4535698,73.4028129 C87.4535698,71.0995871 85.5917603,69.2244903 83.3048556,69.2244903 M83.3048556,83.0004903 C78.0494587,83.0004903 73.7751889,78.6957161 73.7751889,73.4028129 C73.7751889,68.1099097 78.0494587,63.8051355 83.3048556,63.8051355 C88.5602524,63.8051355 92.8327286,68.1099097 92.8327286,73.4028129 C92.8327286,78.6957161 88.5602524,83.0004903 83.3048556,83.0004903" id="Fill-17" fill="#2E2E30"></path>
                <path d="M56.0033381,108.916206 C57.5512587,108.916206 59.0812429,108.838529 60.5968778,108.708465 C60.682973,108.166529 60.7421635,107.613755 60.7421635,107.046529 C60.7421635,101.367045 56.1701476,96.7642065 50.5309095,96.7642065 C45.0566873,96.7642065 40.6012587,101.106916 40.3465603,106.558787 C45.2970365,108.088852 50.554227,108.916206 56.0033381,108.916206" id="Fill-19" fill="#513A2B"></path>
                <path d="M106.378379,59.8192 C105.723697,59.8192 105.086951,59.7523613 104.46276,59.6475871 C95.7545857,81.1262968 74.8298556,96.2715871 50.3698397,96.2715871 C33.3803794,96.2715871 18.0877127,88.9626839 7.41010952,77.3038452 C15.7721095,95.9410065 34.3776492,108.916748 56.0036968,108.916748 C84.0241095,108.916748 106.979252,87.1381677 109.135221,59.4759742 C108.249157,59.6909419 107.329014,59.8192 106.378379,59.8192" id="Fill-3" fill="#010202" opacity="0.2"></path>
                <path d="M63.3542571,105.653755 C62.6619079,99.1433032 57.1787175,94.054529 50.5314476,94.054529 C44.833019,94.054529 39.9901619,97.7740129 38.2969556,102.982013 C20.4429556,96.2457548 7.34930476,79.6336258 5.59332063,59.782529 C6.4291619,59.9794323 7.27935238,60.1149161 8.15286032,60.1149161 C14.4808603,60.1149161 19.6304317,54.9304 19.6304317,48.5554323 C19.6304317,42.3972387 14.821654,37.3644645 8.7914,37.0284645 C14.6082095,21.8524645 27.4364,9.88110968 43.6276857,5.78046452 C46.3396857,9.49272258 50.5762889,11.8031742 55.1895587,12.0217548 C55.1303683,12.6088516 55.0980825,13.1977548 55.0980825,13.7848516 C55.0980825,23.366271 62.8394794,31.1611097 72.3512095,31.1611097 C73.1529714,31.1611097 73.9529397,31.1033032 74.747527,30.9876903 C75.990527,39.4996903 83.3749873,45.9758194 92.2158921,45.822271 C92.0957175,46.5701419 92.036527,47.3270452 92.036527,48.0857548 C92.036527,55.9528516 98.3160984,62.3711742 106.091575,62.526529 C102.897083,84.8181419 85.2134794,102.38769 63.3542571,105.653755 M56.0020825,106.206529 C55.0209556,106.206529 54.0434159,106.1704 53.0694635,106.1144 C52.7663365,106.096335 52.4685905,106.067432 52.1672571,106.045755 C51.4874635,105.993368 50.8076698,105.931948 50.1314635,105.852465 C49.7924635,105.812723 49.4534635,105.769368 49.1180508,105.7224 C48.459781,105.632077 47.8068921,105.527303 47.1540032,105.409884 C46.836527,105.353884 46.5190508,105.301497 46.2033683,105.240077 C45.4034,105.08111 44.6088127,104.900465 43.8178127,104.703561 C43.6868762,104.671045 43.5523524,104.645755 43.4196222,104.611432 C44.4240667,101.60911 47.2347175,99.4738839 50.5314476,99.4738839 C54.3788286,99.4738839 57.5607651,102.400335 57.9984159,106.159561 C57.3347651,106.186658 56.6711143,106.206529 56.0020825,106.206529 M8.15286032,42.4134968 C11.5141619,42.4134968 14.2494794,45.1683355 14.2494794,48.5554323 C14.2494794,51.9407226 11.5141619,54.6955613 8.15286032,54.6955613 C7.06590794,54.6955613 6.15293968,54.3956903 5.43189206,54.0181419 C5.45700317,52.9938839 5.47852698,51.9678194 5.56282857,50.9562065 C5.57179683,50.8532387 5.58793968,50.750271 5.59690794,50.6473032 C5.70632063,49.4333677 5.8641619,48.230271 6.05966984,47.0380129 C6.09913016,46.7977548 6.13859048,46.5556903 6.17984444,46.3154323 C6.4076381,45.038271 6.67309841,43.7737548 6.9941619,42.5273032 C7.37441587,42.4532387 7.76184444,42.4134968 8.15286032,42.4134968 M111.815114,59.6867871 C111.885067,58.8214968 111.535305,57.974271 110.877035,57.4106581 C110.224146,56.8506581 109.338083,56.6393032 108.498654,56.8416258 C107.775813,57.0186581 107.06194,57.1089806 106.378559,57.1089806 C101.437051,57.1089806 97.4174794,53.062529 97.4174794,48.0857548 C97.4174794,46.5737548 97.7977333,45.0780129 98.5169873,43.7574968 C99.0443206,42.7892387 98.9367016,41.5933677 98.2407651,40.7389161 C97.5448286,39.8826581 96.407654,39.5394323 95.3583683,39.8664 C94.214019,40.2258839 93.0230349,40.4083355 91.8159079,40.4083355 C85.2708762,40.4083355 79.945527,35.0431742 79.945527,28.4514323 C79.945527,28.2888516 79.9580825,28.1280774 79.9688444,27.9691097 L79.9831937,27.7252387 C80.0387968,26.8147871 79.6334317,25.9386581 78.9087968,25.3931097 C78.1823683,24.8475613 77.233527,24.7066581 76.3833365,25.0155613 C75.0614159,25.4978839 73.7054159,25.7417548 72.3512095,25.7417548 C65.8061778,25.7417548 60.4790349,20.3784 60.4790349,13.7848516 C60.4790349,12.4896258 60.699654,11.1889806 61.1373048,9.91904516 C61.4529873,8.99414194 61.2503048,7.96627097 60.6063841,7.23465806 C59.9588762,6.50123871 58.9723683,6.17788387 58.0199397,6.38562581 C53.6201143,7.35569032 49.2974159,5.23852903 47.2365111,1.41607742 C46.6679238,0.362916129 45.4841143,-0.189858065 44.3128603,0.0594322581 C23.9405746,4.4184 8.01295556,19.9249806 2.29659048,39.3642065 C2.25892381,39.4563355 2.21049524,39.5448516 2.18179683,39.6405935 C2.10466984,39.9115613 2.05265397,40.1879484 1.97911429,40.4607226 C1.73876508,41.3458839 1.51276508,42.238271 1.31546349,43.1378839 C1.23654286,43.4991742 1.17197143,43.8604645 1.1002254,44.2235613 C0.929828571,45.0725935 0.779161905,45.9270452 0.648225397,46.7887226 C0.606971429,47.0651097 0.558542857,47.3414968 0.52087619,47.6178839 C0.372003175,48.7144 0.259003175,49.8217548 0.174701587,50.934529 C0.153177778,51.1964645 0.138828571,51.4584 0.122685714,51.7203355 C0.0491460317,52.8818839 0.000717460317,54.0470452 0.000717460317,55.2212387 C0.000717460317,55.2429161 0.0043047619,55.414529 0.0060984127,55.454271 L0.0060984127,55.4614968 C0.11192381,80.6795613 16.7300984,102.044465 39.5148444,109.127561 C39.5291937,109.132981 39.5417492,109.143819 39.5560984,109.149239 C39.7193206,109.199819 39.8879238,109.232335 40.051146,109.28111 C41.0412413,109.579174 42.0438921,109.844723 43.0555111,110.086787 C43.3729873,110.162658 43.6904635,110.240335 44.0079397,110.308981 C45.1953365,110.570916 46.3934952,110.805755 47.6060032,110.990013 C47.7207968,111.008077 47.8337968,111.01711 47.9485905,111.033368 C49.0624476,111.195948 50.1888603,111.318787 51.3224476,111.414529 C51.6399238,111.439819 51.9538127,111.46511 52.2712889,111.486787 C53.5053206,111.568077 54.7483206,111.625884 56.0020825,111.625884 C56.8020508,111.625884 57.6109873,111.604206 58.4414476,111.566271 C59.0512889,111.539174 59.6539556,111.492206 60.2584159,111.445239 C60.4503365,111.430787 60.6314952,111.425368 60.8270032,111.407303 C60.8341778,111.407303 60.8413524,111.40369 60.848527,111.401884 C87.7138286,109.031819 109.675289,87.1737548 111.815114,59.6867871" id="Fill-21" fill="#2E2E30"></path>
            </g>
        </g>
    </g>
</svg>
